<svg width="123" height="75" viewBox="0 0 123 75" fill="none" xmlns="http://www.w3.org/2000/svg">
<path d="M6.11488 74C4.93561 74 3.9157 73.5857 3.05515 72.757C2.1946 71.9283 1.76433 71.0678 1.76433 70.1753C1.76433 69.2829 1.87588 68.5817 2.09898 68.0718C2.35396 67.5299 2.68862 67.0519 3.10296 66.6375C3.96351 65.777 4.96748 65.3467 6.11488 65.3467H16.6805C18.6247 65.3467 20.1865 64.8049 21.3657 63.7212C22.545 62.6057 23.1346 61.2352 23.1346 59.6097C23.1346 57.9842 22.6884 56.6775 21.796 55.6894C20.9036 54.6695 19.804 53.9524 18.4972 53.538L9.89174 51.1476C6.92762 50.2552 4.56908 48.5979 2.81611 46.1756C1.03127 43.7214 0.138843 41.1238 0.138843 38.3828C0.138843 35.6418 0.537246 33.3789 1.33405 31.594C2.16273 29.8092 3.26232 28.2793 4.63282 27.0044C7.46945 24.359 10.9754 23.0363 15.1507 23.0363H26.8159C28.027 23.0363 29.031 23.4666 29.8278 24.3272C30.6246 25.1558 31.023 26.1758 31.023 27.3869C31.023 28.598 30.6246 29.618 29.8278 30.4466C29.031 31.2434 28.027 31.6418 26.8159 31.6418H16.059C14.4335 31.6418 13.1586 32.1199 12.2343 33.0761C11.3419 34.0323 10.8957 35.1637 10.8957 36.4705C10.8957 38.5103 12.0272 40.0402 14.2901 41.0601L23.6605 43.7852C28.6963 45.4744 32.0429 48.6616 33.7003 53.3468C34.2421 54.9404 34.513 56.7731 34.513 58.8448C34.513 60.9165 34.0827 62.8925 33.2222 64.773C32.3935 66.6535 31.278 68.2789 29.8756 69.6494C26.9115 72.5498 23.4215 74 19.4056 74H6.11488ZM54.0475 72.9004C53.2507 73.6653 52.5017 74.1912 51.8005 74.4781C51.1312 74.7968 50.3981 74.9562 49.6013 74.9562C48.8364 74.9562 48.1033 74.8127 47.4021 74.5259C46.7009 74.239 46.0954 73.8406 45.5854 73.3307C44.4699 72.2152 43.9121 70.8925 43.9121 69.3626V6.11221C43.9121 4.55047 44.3265 3.3712 45.1551 2.57439C46.5256 1.17202 47.8005 0.470828 48.9798 0.470828C50.191 0.470828 51.1312 0.614253 51.8005 0.901103C52.5017 1.18795 53.1073 1.58635 53.6172 2.09631C54.7327 3.21184 55.2905 4.55047 55.2905 6.11221V24.9965C55.2905 25.6021 55.4499 26.0164 55.7686 26.2395C56.1192 26.4307 56.4538 26.5264 56.7726 26.5264C57.0913 26.5264 57.3941 26.3829 57.6809 26.0961L58.4459 25.3311C60.6132 23.1638 63.1151 22.0802 65.9518 22.0802C69.394 22.0802 72.2465 23.4826 74.5094 26.2873C76.7724 29.0602 77.9038 32.3749 77.9038 36.2314V69.3626C77.9038 71.7849 76.7724 73.49 74.5094 74.4781C73.8083 74.7968 73.0593 74.9562 72.2625 74.9562C71.4975 74.9562 70.7645 74.8127 70.0633 74.5259C69.3621 74.239 68.7565 73.8406 68.2466 73.3307C67.131 72.2152 66.5733 70.8925 66.5733 69.3626V36.3749C66.5733 34.7813 66.1749 33.586 65.3781 32.7892C63.9757 31.3869 62.6849 30.6857 61.5056 30.6857C60.3582 30.6857 59.4498 30.8132 58.7805 31.0681C58.1112 31.2912 57.5216 31.6259 57.0116 32.0721C55.8642 33.0283 55.2905 34.2713 55.2905 35.8012V69.3626C55.2905 70.9243 54.8762 72.1036 54.0475 72.9004ZM102.057 16.7735C101.451 16.136 101.037 15.5623 100.814 15.0524C100.59 14.5105 100.479 13.7934 100.479 12.901C100.479 12.0086 100.877 11.148 101.674 10.3193C102.503 9.45879 103.507 9.02851 104.686 9.02851H117.786C118.997 9.02851 120.001 9.45879 120.797 10.3193C121.626 11.148 122.04 12.152 122.04 13.3313V69.3626C122.04 70.8925 121.642 72.0558 120.845 72.8526C119.443 74.255 118.152 74.9562 116.973 74.9562C115.794 74.9562 114.853 74.7968 114.152 74.4781C113.451 74.1912 112.845 73.8088 112.335 73.3307C111.22 72.247 110.662 70.9243 110.662 69.3626V17.6818H104.686C103.571 17.6818 102.694 17.379 102.057 16.7735Z" fill="#A0C99E"/>
<path d="M92.8009 62.1435C94.5539 62.1435 96.0678 62.781 97.3427 64.0559C98.6176 65.3308 99.255 66.6216 99.255 67.9283C99.255 69.2351 99.0797 70.271 98.7291 71.0359C98.3785 71.8008 97.9164 72.4701 97.3427 73.0438C96.0678 74.3187 94.5539 74.9562 92.8009 74.9562C91.0479 74.9562 89.534 74.3187 88.2591 73.0438C86.9842 71.7689 86.3468 70.4941 86.3468 69.2192C86.3468 67.0519 86.9842 65.3308 88.2591 64.0559C89.534 62.781 91.0479 62.1435 92.8009 62.1435Z" fill="#FBB874"/>
</svg>
