<svg width="61" height="60" viewBox="0 0 61 60" fill="none" xmlns="http://www.w3.org/2000/svg">
<g clip-path="url(#clip0_123_250)">
<path d="M48.0965 0.812927H13.1396C6.85389 0.812927 1.7583 5.90852 1.7583 12.1942V47.1512C1.7583 53.4369 6.85389 58.5325 13.1396 58.5325H48.0965C54.3823 58.5325 59.4779 53.4369 59.4779 47.1512V12.1942C59.4779 5.90852 54.3823 0.812927 48.0965 0.812927Z" fill="#72B5CB" stroke="#72B5CB" stroke-width="1.6259"/>
<path d="M49.9721 19.046C48.0121 15.6877 45.3535 13.029 41.9955 11.0692C38.637 9.10926 34.9706 8.12955 30.9936 8.12955C27.0171 8.12955 23.3494 9.10956 19.9917 11.0692C16.6334 13.0289 13.9748 15.6877 12.0148 19.046C10.0551 22.4042 9.0752 26.0713 9.0752 30.0473C9.0752 34.8234 10.4686 39.1182 13.2562 42.9328C16.0435 46.7477 19.6443 49.3874 24.0582 50.8524C24.572 50.9477 24.9524 50.8806 25.1997 50.6528C25.4471 50.4247 25.5706 50.139 25.5706 49.797C25.5706 49.7399 25.5657 49.2264 25.5562 48.2559C25.5464 47.2854 25.5418 46.4387 25.5418 45.7163L24.8854 45.8298C24.4669 45.9065 23.9389 45.939 23.3014 45.9298C22.6643 45.9209 22.0029 45.8541 21.318 45.73C20.6329 45.6069 19.9957 45.3216 19.4058 44.8744C18.8162 44.4273 18.3977 43.842 18.1503 43.1195L17.8649 42.4628C17.6747 42.0256 17.3752 41.5399 16.9661 41.0075C16.5569 40.4746 16.1432 40.1133 15.7246 39.9231L15.5248 39.7801C15.3917 39.685 15.2681 39.5703 15.1539 39.4373C15.0397 39.3042 14.9543 39.1711 14.8972 39.0378C14.84 38.9043 14.8874 38.7948 15.0398 38.709C15.1923 38.6231 15.4678 38.5814 15.8675 38.5814L16.4381 38.6667C16.8186 38.743 17.2893 38.9708 17.8508 39.3515C18.412 39.732 18.8733 40.2266 19.2349 40.8351C19.6727 41.6154 20.2002 42.21 20.8188 42.6191C21.437 43.0283 22.0602 43.2325 22.688 43.2325C23.3157 43.2325 23.8579 43.1849 24.3147 43.0902C24.7711 42.9951 25.1992 42.852 25.5989 42.6619C25.7702 41.3866 26.2364 40.4069 26.9972 39.7221C25.9128 39.6081 24.9379 39.4365 24.0719 39.2083C23.2065 38.9798 22.3121 38.6089 21.3895 38.0947C20.4664 37.5812 19.7006 36.9436 19.0919 36.1829C18.4832 35.4218 17.9836 34.4226 17.5938 33.1862C17.2039 31.9493 17.0088 30.5224 17.0088 28.9053C17.0088 26.6027 17.7605 24.6433 19.2636 23.0259C18.5595 21.2948 18.626 19.3542 19.4633 17.2042C20.015 17.0328 20.8333 17.1615 21.9177 17.5894C23.0023 18.0175 23.7963 18.3843 24.3007 18.6883C24.8051 18.9923 25.2093 19.2499 25.5138 19.4588C27.2836 18.9643 29.1099 18.717 30.9934 18.717C32.8768 18.717 34.7036 18.9643 36.4735 19.4588L37.558 18.7742C38.2996 18.3174 39.1753 17.8988 40.1831 17.5182C41.1915 17.1379 41.9626 17.0331 42.4956 17.2045C43.3515 19.3546 43.4277 21.2951 42.7234 23.0262C44.2264 24.6436 44.9784 26.6035 44.9784 28.9056C44.9784 30.5227 44.7827 31.9541 44.3933 33.2005C44.0035 34.4471 43.4996 35.4453 42.8814 36.1972C42.2626 36.949 41.4919 37.5816 40.5693 38.095C39.6464 38.6088 38.7518 38.9797 37.8863 39.2082C37.0205 39.4367 36.0456 39.6084 34.9612 39.7226C35.9502 40.5784 36.4448 41.9294 36.4448 43.7749V49.7962C36.4448 50.1382 36.5638 50.4238 36.8019 50.652C37.0397 50.8798 37.4152 50.9469 37.929 50.8515C42.3436 49.3867 45.9443 46.7469 48.7315 42.932C51.5184 39.1174 52.9124 34.8226 52.9124 30.0465C52.9114 26.071 51.931 22.4042 49.9721 19.046Z" fill="#353A47"/>
</g>
<defs>
<clipPath id="clip0_123_250">
<rect width="59.3455" height="59.3455" fill="white" transform="translate(0.945557 3.05176e-05)"/>
</clipPath>
</defs>
</svg>
