<svg width="58" height="58" viewBox="0 0 58 58" fill="none" xmlns="http://www.w3.org/2000/svg">
<path d="M3.65448 32.0909C3.65448 19.8001 13.6182 9.83635 25.909 9.83635H28.3818C40.6726 9.83635 50.6363 19.8001 50.6363 32.0909C50.6363 44.3817 40.6726 54.3454 28.3818 54.3454H25.909C13.6182 54.3454 3.65448 44.3817 3.65448 32.0909Z" fill="#353A47"/>
<path d="M43.1665 0.666626H14.8332C7.0415 0.666626 0.666504 7.04163 0.666504 14.8333V43.1666C0.666504 50.9583 7.0415 57.3333 14.8332 57.3333H43.1665C50.9582 57.3333 57.3332 50.9583 57.3332 43.1666V14.8333C57.3332 7.04163 50.9582 0.666626 43.1665 0.666626ZM19.0832 44.5833H13.4165V23.3333H19.0832V44.5833ZM16.2498 19.0833C14.6915 19.0833 13.4165 17.8083 13.4165 16.25C13.4165 14.6916 14.6915 13.4166 16.2498 13.4166C17.8082 13.4166 19.0832 14.6916 19.0832 16.25C19.0832 17.8083 17.8082 19.0833 16.2498 19.0833ZM44.5832 44.5833H38.9165V33.9583C38.9165 30.4166 37.4998 28.8583 34.6665 28.8583L28.9998 29V44.5833H23.3332V23.3333L34.6665 23.05C39.4832 23.05 44.5832 25.8833 44.5832 33.8166V44.5833Z" fill="#72B5CB"/>
</svg>
