<svg width="72" height="73" viewBox="0 0 72 73" fill="none" xmlns="http://www.w3.org/2000/svg">
<g clip-path="url(#clip0_243_334)">
<path d="M71.8097 36.2647C71.8092 28.4306 69.245 20.8119 64.5086 14.5718C59.7721 8.33166 53.1237 3.81297 45.5784 1.7056C40.4412 3.46596 27.1766 8.01149 24.4608 8.942C22.5246 9.62832 22.2996 10.5984 22.2996 11.2683C22.2996 11.9381 22.5246 12.9082 24.4608 13.5946C27.0176 14.4706 38.9254 18.5512 44.5971 20.4947L33.1221 24.4242L24.1707 21.3581C21.3868 20.4029 20.3979 18.6725 20.0076 17.2284C19.5084 15.4887 19.233 13.6924 19.1881 11.883C19.183 11.7294 19.1777 11.2683 19.1777 11.2683C19.1777 11.2683 19.183 10.8071 19.1881 10.6535C19.233 8.84414 19.5085 7.04784 20.0076 5.30807C20.1463 4.78339 20.3583 4.28089 20.6374 3.81545C14.0203 6.93897 8.51633 12.0109 4.86343 18.3511C1.21053 24.6913 -0.416666 31.9968 0.200007 39.288C0.816679 46.5792 3.64775 53.5076 8.31362 59.1443C12.9795 64.7809 19.2571 68.8564 26.3048 70.8242C31.4426 69.0635 44.7058 64.5186 47.4213 63.5881C49.3575 62.9018 49.5826 61.9317 49.5826 61.2618C49.5826 60.592 49.3575 59.6219 47.4213 58.9355C44.8645 58.0595 32.9568 53.9789 27.2851 52.0354L38.7601 48.1059L47.7115 51.172C50.4954 52.1272 51.4842 53.8576 51.8746 55.3017C52.3737 57.0414 52.6491 58.8377 52.6941 60.6471C52.6992 60.8007 52.7044 61.2618 52.7044 61.2618C52.7044 61.2618 52.6992 61.723 52.6941 61.8766C52.6491 63.686 52.3737 65.4823 51.8745 67.2221C51.7359 67.7464 51.5241 68.2486 51.2453 68.7138C57.3968 65.8111 62.5963 61.2194 66.2373 55.474C69.8784 49.7287 71.811 43.0666 71.8097 36.2647ZM51.7344 37.8027C51.2231 39.2087 50.3983 40.8194 47.6127 41.7746C47.3225 41.8741 27.8204 48.557 24.4608 49.7082C22.5246 50.3944 22.2996 51.3646 22.2996 52.0344C22.2996 52.7043 22.5246 53.6744 24.4608 54.3607C27.0176 55.2367 38.9254 59.3173 44.5971 61.2608L33.1221 65.1903L24.1707 62.1242C21.3868 61.169 20.3979 59.4386 20.0076 57.9946C19.5084 56.2548 19.233 54.4585 19.1881 52.6492C19.183 52.4955 19.1777 52.0344 19.1777 52.0344C19.1777 52.0344 19.183 51.5732 19.1881 51.4197C19.233 49.6103 19.5085 47.814 20.0076 46.0742C20.398 44.6302 21.3868 42.8998 24.1708 41.9446L47.3377 34.0093C49.3057 33.257 51.0612 32.2641 52.1696 29.2785C52.8325 32.104 52.6816 35.0594 51.7344 37.8027ZM52.6941 21.1104C52.6491 22.9198 52.3737 24.7161 51.8745 26.4559C51.4842 27.8999 50.4954 29.6302 47.7114 30.5855L24.5445 38.5207C22.5765 39.2732 20.821 40.266 19.7126 43.2516C19.0497 40.4261 19.2006 37.4707 20.1478 34.7274C20.659 33.3214 21.4839 31.7107 24.2694 30.7555C24.5597 30.656 44.0618 23.973 47.4214 22.822C49.3575 22.1356 49.5826 21.1655 49.5826 20.4957C49.5826 19.8259 49.3575 18.8557 47.4214 18.1694C44.8645 17.2934 32.9568 13.2128 27.2851 11.2693L38.7601 7.33974L47.7115 10.4059C50.4954 11.3611 51.4842 13.0915 51.8746 14.5355C52.3738 16.2753 52.6492 18.0715 52.6941 19.8809C52.6992 20.0346 52.7044 20.4956 52.7044 20.4956C52.7044 20.4956 52.6992 20.9568 52.6941 21.1104Z" fill="#11316E"/>
<path d="M52.1696 29.2784C52.8325 32.1039 52.6816 35.0594 51.7344 37.8027C51.2232 39.2087 50.3983 40.8194 47.6127 41.7746C47.3225 41.874 27.8204 48.557 24.4609 49.7081C22.5246 50.3944 22.2996 51.3645 22.2996 52.0344C22.2996 52.7042 22.5246 53.6744 24.4609 54.3606C27.0177 55.2367 38.9254 59.3172 44.5971 61.2608L33.1221 65.1903L24.1707 62.1242C21.3868 61.169 20.3979 59.4386 20.0076 57.9945C19.5084 56.2548 19.233 54.4585 19.1881 52.6491C19.183 52.4955 19.1777 52.0344 19.1777 52.0344C19.1777 52.0344 19.183 51.5732 19.1881 51.4196C19.2331 49.6102 19.5085 47.8139 20.0077 46.0742C20.398 44.6301 21.3868 42.8998 24.1708 41.9445L47.3377 34.0093C49.3057 33.2569 51.0612 32.2641 52.1696 29.2784ZM52.6941 61.8765C52.6992 61.7229 52.7044 61.2617 52.7044 61.2617C52.7044 61.2617 52.6992 60.8007 52.6941 60.647C52.6491 58.8377 52.3738 57.0414 51.8746 55.3016C51.4842 53.8576 50.4954 52.1272 47.7115 51.172L38.7601 48.1059L27.2851 52.0353C32.9568 53.9789 44.8646 58.0594 47.4214 58.9355C49.3576 59.6218 49.5826 60.592 49.5826 61.2617C49.5826 61.9316 49.3576 62.9017 47.4214 63.5881C44.7058 64.5185 31.4427 69.0635 26.3049 70.8241C34.6033 73.1249 43.4515 72.3762 51.2454 68.7137C51.5242 68.2485 51.736 67.7464 51.8745 67.222C52.3737 65.4822 52.6491 63.6859 52.6941 61.8765ZM19.1881 10.6535C19.183 10.8071 19.1778 11.2683 19.1778 11.2683C19.1778 11.2683 19.183 11.7293 19.1881 11.883C19.2331 13.6924 19.5084 15.4886 20.0076 17.2284C20.398 18.6724 21.3868 20.4028 24.1707 21.358L33.1221 24.4242L44.5971 20.4947C38.9254 18.5511 27.0177 14.4706 24.4609 13.5945C22.5246 12.9082 22.2996 11.9381 22.2996 11.2683C22.2996 10.5984 22.5246 9.62828 24.4609 8.94196C27.1766 8.01146 40.4412 3.46593 45.5784 1.70557C37.2798 -0.595518 28.4315 0.152991 20.6374 3.81539C20.3583 4.28083 20.1463 4.78333 20.0077 5.30802C19.5085 7.04779 19.2331 8.84409 19.1881 10.6535ZM51.8746 14.5355C51.4842 13.0915 50.4954 11.3611 47.7115 10.4059L38.7601 7.33971L27.2851 11.2692C32.9568 13.2128 44.8646 17.2933 47.4214 18.1694C49.3576 18.8557 49.5826 19.8258 49.5826 20.4956C49.5826 21.1655 49.3576 22.1356 47.4214 22.8219C44.0618 23.973 24.5597 30.656 24.2695 30.7554C21.4839 31.7106 20.659 33.3213 20.1478 34.7273C19.2006 37.4706 19.0497 40.4261 19.7126 43.2516C20.821 40.266 22.5765 39.2731 24.5445 38.5207L47.7114 30.5855C50.4954 29.6302 51.4842 27.8999 51.8745 26.4559C52.3737 24.7161 52.6492 22.9198 52.6941 21.1104C52.6992 20.9568 52.7045 20.4956 52.7045 20.4956C52.7045 20.4956 52.6992 20.0346 52.6941 19.8809C52.6492 18.0715 52.3738 16.2753 51.8746 14.5355Z" fill="white"/>
<path d="M51.6098 32.2551C51.5989 33.9634 51.3039 35.6581 50.7368 37.2696C50.4704 38.0984 50.0041 38.8489 49.3789 39.4548C48.7538 40.0607 47.9891 40.5033 47.1524 40.7437C46.8628 40.843 27.4552 47.4902 24.0957 48.6412C21.8791 49.4268 21.172 50.7231 21.1721 52.0345C21.172 53.3459 21.8791 54.6423 24.0957 55.4278C26.2551 56.1677 35.0458 59.1787 41.1271 61.2616L33.1263 64.0033C28.6079 62.4562 24.8273 61.1615 24.7025 61.1187C23.8657 60.8783 23.101 60.4356 22.4759 59.8298C21.8508 59.2239 21.3844 58.4734 21.118 57.6446C20.5509 56.0331 20.2559 54.3385 20.245 52.6302C20.24 52.4813 20.2347 52.0345 20.2347 52.0345C20.2347 52.0345 20.24 51.5877 20.245 51.4388C20.2559 49.7305 20.5509 48.0359 21.118 46.4244C21.3844 45.5956 21.8508 44.8451 22.4759 44.2392C23.101 43.6333 23.8657 43.1907 24.7025 42.9503C24.992 42.8509 44.8877 36.0395 48.2472 34.8885C49.3095 34.5246 51.0009 33.63 51.6098 32.2551ZM50.7642 14.8855C50.4978 14.0567 50.0314 13.3062 49.4063 12.7003C48.7812 12.0944 48.0165 11.6518 47.1797 11.4114C47.0549 11.3686 43.2742 10.0738 38.7558 8.5268L30.7551 11.2685C36.8363 13.3514 45.627 16.3624 47.7865 17.1023C50.0031 17.8878 50.7102 19.1842 50.7101 20.4956C50.7102 21.8069 50.0031 23.1033 47.7865 23.8889C44.427 25.0399 25.0193 31.6871 24.7297 31.7863C23.893 32.0267 23.1283 32.4694 22.5032 33.0753C21.8781 33.6812 21.4117 34.4317 21.1453 35.2605C20.5783 36.872 20.2833 38.5666 20.2724 40.275C20.8813 38.9 22.5726 38.0055 23.635 37.6416C26.9945 36.4906 46.8901 29.6792 47.1797 29.5798C48.0165 29.3394 48.7811 28.8967 49.4063 28.2908C50.0314 27.685 50.4978 26.9345 50.7642 26.1057C51.3313 24.4942 51.6263 22.7996 51.6372 21.0912C51.6422 20.9424 51.6475 20.4956 51.6475 20.4956C51.6475 20.4956 51.6422 20.0487 51.6372 19.8999C51.6263 18.1916 51.3313 16.497 50.7642 14.8855ZM21.1179 5.65822C20.5509 7.26973 20.2559 8.96435 20.245 10.6727C20.24 10.8215 20.2347 11.2683 20.2347 11.2683C20.2347 11.2683 20.24 11.7152 20.245 11.864C20.2559 13.5723 20.5509 15.267 21.1179 16.8785C21.3844 17.7073 21.8507 18.4577 22.4759 19.0636C23.101 19.6695 23.8657 20.1121 24.7024 20.3525C24.8273 20.3953 28.6079 21.6901 33.1263 23.2372L41.1271 20.4955C35.0458 18.4126 26.2552 15.4015 24.0956 14.6616C21.8791 13.8761 21.172 12.5797 21.1721 11.2683C21.172 9.95697 21.8791 8.66059 24.0956 7.87504C26.5667 7.02838 37.7203 3.20818 43.5619 1.20737C37.2059 -0.163224 30.5978 0.207771 24.4352 2.28119C23.6564 2.54487 22.9504 2.98786 22.3742 3.57445C21.798 4.16104 21.3677 4.87481 21.1179 5.65822ZM50.7642 66.8718C51.3313 65.2603 51.6263 63.5657 51.6372 61.8574C51.6422 61.7085 51.6475 61.2617 51.6475 61.2617C51.6475 61.2617 51.6422 60.8149 51.6372 60.666C51.6263 58.9577 51.3313 57.2631 50.7642 55.6516C50.4978 54.8228 50.0314 54.0723 49.4063 53.4664C48.7812 52.8606 48.0165 52.4179 47.1797 52.1775C47.0549 52.1347 43.2742 50.84 38.7558 49.2929L30.7551 52.0346C36.8363 54.1175 45.627 57.1285 47.7865 57.8684C50.0031 58.6539 50.7102 59.9503 50.7101 61.2617C50.7102 62.5731 50.0031 63.8694 47.7865 64.655C45.3156 65.5016 34.1633 69.3213 28.3214 71.3223C34.683 72.6939 41.2972 72.3207 47.4642 70.2423C48.2393 69.9772 48.9414 69.5343 49.5145 68.949C50.0876 68.3637 50.5156 67.6523 50.7642 66.8718Z" fill="#D70825"/>
</g>
<defs>
<clipPath id="clip0_243_334">
<rect width="72" height="72.5294" fill="white"/>
</clipPath>
</defs>
</svg>
