<svg width="361" height="87" viewBox="0 0 361 87" fill="none" xmlns="http://www.w3.org/2000/svg">
<path d="M0.558683 63.6076C0.619114 62.5803 0.951481 61.4321 1.55578 60.163C2.16009 58.8638 2.85504 57.8365 3.64063 57.0811C5.54419 58.1084 7.58371 59.0451 9.7592 59.8911C11.9347 60.7069 14.1404 61.1148 16.3763 61.1148C18.854 61.1148 20.818 60.5861 22.2683 59.5285C23.7186 58.471 24.4589 57.1113 24.4891 55.4495C24.4891 54.1804 24.0057 53.002 23.0388 51.9143C22.0719 50.8266 20.6518 49.9503 18.7784 49.2856L13.521 47.3367C11.4361 46.5813 9.51748 45.6295 7.765 44.4814C6.04274 43.3332 4.65284 41.9433 3.59531 40.3117C2.53778 38.6498 2.00901 36.6859 2.00901 34.4197C2.00901 31.6399 2.70396 29.2529 4.09386 27.2587C5.51397 25.2645 7.43263 23.7387 9.84985 22.6811C12.2973 21.5934 15.0318 21.0495 18.0533 21.0495C20.5007 21.0495 23.0992 21.3668 25.8488 22.0013C28.6286 22.6358 30.9551 23.4063 32.8285 24.3127C32.8587 25.0681 32.7681 25.899 32.5565 26.8055C32.345 27.6817 32.0127 28.5127 31.5594 29.2982C31.1364 30.0536 30.653 30.6881 30.1091 31.2018C28.5077 30.4464 26.6495 29.7666 24.5344 29.1623C22.4194 28.5278 20.2288 28.2105 17.9626 28.2105C15.9986 28.2105 14.4274 28.6939 13.2491 29.6608C12.0707 30.5975 11.4815 31.8665 11.4815 33.4679C11.4815 34.737 11.9347 35.7945 12.8411 36.6405C13.7778 37.4866 15.1828 38.257 17.0562 38.952L22.6309 40.9915C26.0452 42.2303 28.8099 43.9375 30.9249 46.113C33.0702 48.2885 34.1428 51.1287 34.1428 54.6337C34.1428 58.8336 32.5112 62.1421 29.248 64.5594C25.9847 66.9463 21.6942 68.1398 16.3763 68.1398C13.2037 68.1398 10.2578 67.6866 7.53839 66.7802C4.84924 65.8737 2.52267 64.8162 0.558683 63.6076ZM71.3528 66.9615C70.0838 67.2032 68.5277 67.324 66.6846 67.324C65.0227 67.324 63.512 67.2032 62.1523 66.9615V0.880878L62.7415 0.291682H66.2767C68.2407 0.291682 69.5701 0.775126 70.2651 1.74201C70.9902 2.67868 71.3528 4.18944 71.3528 6.27428V66.9615ZM97.6853 57.3984C97.6853 58.9695 97.7911 60.4652 98.0026 61.8853C98.2141 63.2752 98.6069 64.4989 99.181 65.5565C98.486 66.1305 97.6098 66.5989 96.5523 66.9615C95.525 67.3543 94.4372 67.5507 93.289 67.5507C91.4761 67.5507 90.192 67.0521 89.4366 66.055C88.7114 65.0579 88.3489 63.5774 88.3489 61.6134V38.5894C88.3489 35.5679 87.9561 33.3622 87.1705 31.9723C86.3849 30.5824 84.8892 29.8874 82.6835 29.8874C81.1728 29.8874 79.526 30.2651 77.7433 31.0205C75.9909 31.7457 74.329 32.773 72.7578 34.1025C71.1866 35.4319 69.9176 37.0031 68.9507 38.816V29.7968C70.9751 27.4702 73.4528 25.5062 76.3837 23.9048C79.3145 22.2732 82.4116 21.4574 85.6748 21.4574C88.515 21.4574 90.8114 22.1221 92.5639 23.4516C94.3164 24.7509 95.6005 26.5336 96.4163 28.7997C97.2623 31.0356 97.6853 33.5435 97.6853 36.3233V57.3984ZM231.183 26.3976C230.186 27.2436 229.506 28.4522 229.143 30.0234C228.811 31.5644 228.645 33.2111 228.645 34.9636V61.7947C228.645 65.2694 228.479 68.2003 228.146 70.5873C227.814 73.0045 227.33 75.0289 226.696 76.6605C226.061 78.3224 225.261 79.7425 224.294 80.9209C222.874 82.7338 220.879 84.1841 218.311 85.2718C215.743 86.3898 212.752 86.9488 209.337 86.9488C206.557 86.9488 203.763 86.6466 200.953 86.0423C198.143 85.438 195.695 84.7129 193.61 83.8668C193.64 82.7187 193.882 81.4647 194.335 80.1051C194.789 78.7454 195.378 77.6576 196.103 76.8418C198.007 77.7483 200.091 78.4432 202.358 78.9267C204.624 79.4403 206.648 79.6972 208.431 79.6972C211.513 79.6972 213.839 79.1231 215.41 77.9749C217.012 76.8569 218.1 75.3311 218.674 73.3973C219.248 71.4937 219.535 69.3787 219.535 67.0521V33.5133C219.535 30.6126 220.139 28.0443 221.348 25.8084C222.587 23.5423 224.687 22.1221 227.648 21.5481C228.403 22.0013 229.128 22.7113 229.823 23.6782C230.518 24.6451 230.971 25.5516 231.183 26.3976ZM191.707 44.6627C191.707 39.2844 192.553 34.8578 194.245 31.3831C195.967 27.9083 198.158 25.325 200.817 23.6329C203.476 21.9106 206.225 21.0495 209.065 21.0495C211.694 21.0495 213.975 21.4423 215.909 22.2279C217.843 23.0135 219.505 24.0106 220.895 25.2192C222.315 26.4278 223.523 27.6666 224.52 28.9357L223.251 36.9578C221.65 34.4801 219.686 32.4557 217.359 30.8845C215.063 29.3134 212.782 28.5278 210.516 28.5278C207.857 28.5278 205.651 29.8572 203.899 32.5162C202.146 35.1449 201.27 39.2239 201.27 44.7533C201.27 50.1316 202.055 54.0143 203.627 56.4013C205.228 58.758 207.147 59.9364 209.383 59.9364C211.8 59.9364 214.111 59.1508 216.317 57.5796C218.553 55.9782 220.29 53.9538 221.529 51.5064L222.934 58.7127C222.118 60.1026 220.955 61.4925 219.444 62.8824C217.933 64.2421 216.151 65.3903 214.096 66.3269C212.072 67.2636 209.866 67.7319 207.479 67.7319C204.004 67.7319 201.089 66.7651 198.732 64.8313C196.405 62.8975 194.653 60.2084 193.474 56.7638C192.296 53.2891 191.707 49.2554 191.707 44.6627ZM296.749 26.3976C295.751 27.2436 295.072 28.4522 294.709 30.0234C294.377 31.5644 294.21 33.2111 294.21 34.9636V61.7947C294.21 65.2694 294.044 68.2003 293.712 70.5873C293.38 73.0045 292.896 75.0289 292.262 76.6605C291.627 78.3224 290.826 79.7425 289.859 80.9209C288.439 82.7338 286.445 84.1841 283.877 85.2718C281.309 86.3898 278.317 86.9488 274.903 86.9488C272.123 86.9488 269.328 86.6466 266.518 86.0423C263.708 85.438 261.261 84.7129 259.176 83.8668C259.206 82.7187 259.448 81.4647 259.901 80.1051C260.354 78.7454 260.944 77.6576 261.669 76.8418C263.572 77.7483 265.657 78.4432 267.923 78.9267C270.189 79.4403 272.214 79.6972 273.997 79.6972C277.078 79.6972 279.405 79.1231 280.976 77.9749C282.578 76.8569 283.665 75.3311 284.239 73.3973C284.814 71.4937 285.101 69.3787 285.101 67.0521V33.5133C285.101 30.6126 285.705 28.0443 286.914 25.8084C288.152 23.5423 290.252 22.1221 293.213 21.5481C293.969 22.0013 294.694 22.7113 295.389 23.6782C296.084 24.6451 296.537 25.5516 296.749 26.3976ZM257.272 44.6627C257.272 39.2844 258.118 34.8578 259.811 31.3831C261.533 27.9083 263.723 25.325 266.382 23.6329C269.041 21.9106 271.791 21.0495 274.631 21.0495C277.26 21.0495 279.541 21.4423 281.475 22.2279C283.409 23.0135 285.07 24.0106 286.46 25.2192C287.88 26.4278 289.089 27.6666 290.086 28.9357L288.817 36.9578C287.216 34.4801 285.252 32.4557 282.925 30.8845C280.629 29.3134 278.348 28.5278 276.081 28.5278C273.422 28.5278 271.217 29.8572 269.464 32.5162C267.712 35.1449 266.836 39.2239 266.836 44.7533C266.836 50.1316 267.621 54.0143 269.192 56.4013C270.794 58.758 272.712 59.9364 274.948 59.9364C277.366 59.9364 279.677 59.1508 281.883 57.5796C284.119 55.9782 285.856 53.9538 287.095 51.5064L288.5 58.7127C287.684 60.1026 286.521 61.4925 285.01 62.8824C283.499 64.2421 281.717 65.3903 279.662 66.3269C277.637 67.2636 275.432 67.7319 273.045 67.7319C269.57 67.7319 266.654 66.7651 264.297 64.8313C261.971 62.8975 260.218 60.2084 259.04 56.7638C257.862 53.2891 257.272 49.2554 257.272 44.6627ZM348.219 65.5111C346.889 70.134 345.424 74.0167 343.823 77.1591C342.251 80.3015 340.227 82.6885 337.749 84.3201C335.272 85.9517 332.024 86.7675 328.005 86.7675C326.585 86.7675 325.014 86.6013 323.291 86.269C321.599 85.9668 320.285 85.6495 319.348 85.3172C319.258 84.1992 319.409 82.9755 319.802 81.646C320.225 80.3468 320.738 79.3346 321.343 78.6094C322.068 78.8511 323.065 79.0928 324.334 79.3346C325.633 79.5763 326.887 79.6972 328.096 79.6972C330.12 79.6972 331.797 79.2439 333.126 78.3375C334.486 77.431 335.619 76.1318 336.526 74.4397C337.462 72.7477 338.263 70.7686 338.928 68.5024L339.245 67.4147C337.372 67.3543 335.876 66.9917 334.758 66.3269C333.64 65.632 332.794 64.3781 332.22 62.5651L320.345 22.9531C321.403 22.4394 322.415 22.0768 323.382 21.8653C324.379 21.6538 325.255 21.5481 326.011 21.5481C327.129 21.5481 328.081 21.8351 328.866 22.4092C329.682 22.9531 330.301 24.0559 330.724 25.7177L336.843 46.5662C337.296 47.9561 337.719 49.4669 338.112 51.0985C338.535 52.7301 338.928 54.3164 339.29 55.8574C339.683 57.3681 340 58.7127 340.242 59.8911C340.363 60.3141 340.65 60.5256 341.103 60.5256L351.029 22.1826C351.603 22.0617 352.253 21.9711 352.978 21.9106C353.703 21.8502 354.398 21.82 355.063 21.82C355.878 21.82 356.694 21.8653 357.51 21.956C358.326 22.0466 359.112 22.2128 359.867 22.4545L360.184 22.9984L348.219 65.5111Z" fill="#A0C99E"/>
<path d="M122.019 81.0115C121.898 80.4676 121.807 79.8633 121.747 79.1986C121.686 78.5641 121.656 77.9749 121.656 77.431C121.656 76.8267 121.686 76.1922 121.747 75.5275C121.807 74.8627 121.898 74.2433 122.019 73.6692H170.106C170.257 74.2433 170.363 74.8023 170.423 75.3462C170.484 75.9203 170.514 76.6152 170.514 77.431C170.514 78.7605 170.378 79.954 170.106 81.0115H122.019Z" fill="#FBB874"/>
</svg>
